{"glyphs":{"0":{"ha":768,"x_min":0,"x_max":661,"o":"m 550 111 l 106 111 l 106 1006 l 550 1006 l 550 111 m 0 1111 l 0 0 l 661 0 l 661 1111 l 0 1111 z "},"1":{"ha":326,"x_min":0,"x_max":214,"o":"m 106 0 l 211 0 l 214 1111 l 0 1111 l 0 994 l 106 1006 l 106 0 z "},"2":{"ha":765,"x_min":0,"x_max":678,"o":"m 161 111 l 678 628 l 678 1111 l 0 1111 l 0 739 l 106 739 l 106 1006 l 556 1006 l 556 667 l 0 111 l 0 0 l 661 0 l 661 111 l 161 111 z "},"3":{"ha":768,"x_min":0,"x_max":661,"o":"m 111 333 l 0 333 l 0 0 l 661 0 l 661 508 l 606 553 l 661 589 l 661 1111 l 0 1111 l 0 756 l 106 756 l 106 1006 l 550 1006 l 550 642 l 503 611 l 244 611 l 244 500 l 506 500 l 551 474 l 551 111 l 111 111 l 111 333 z "},"4":{"ha":789,"x_min":0,"x_max":689,"o":"m 0 539 l 0 394 l 494 394 l 494 0 l 611 0 l 611 394 l 689 394 l 689 506 l 611 506 l 611 1111 l 494 1111 l 494 506 l 106 506 l 406 1111 l 283 1111 l 0 539 z "},"5":{"ha":746,"x_min":0,"x_max":667,"o":"m 0 517 l 550 517 l 550 111 l 106 111 l 106 367 l 0 367 l 0 0 l 667 0 l 667 633 l 106 633 l 106 1006 l 650 1006 l 661 1111 l 0 1111 l 0 517 z "},"6":{"ha":754,"x_min":0,"x_max":661,"o":"m 100 589 l 544 585 l 544 110 l 100 110 l 100 589 m 0 0 l 661 0 l 661 689 l 106 689 l 106 1006 l 539 1006 l 539 833 l 661 833 l 661 1111 l 0 1111 l 0 0 z "},"7":{"ha":786,"x_min":17,"x_max":722,"o":"m 17 0 l 156 0 l 722 994 l 722 1111 l 61 1111 l 61 994 l 594 994 l 17 0 z "},"8":{"ha":768,"x_min":0,"x_max":661,"o":"m 106 111 l 106 500 l 551 500 l 551 111 l 106 111 m 0 600 l 61 556 l 0 517 l 0 0 l 661 0 l 661 514 l 594 561 l 661 597 l 661 1111 l 0 1111 l 0 600 m 106 617 l 106 1006 l 550 1006 l 550 617 l 106 617 z "},"9":{"ha":754,"x_min":0,"x_max":661,"o":"m 561 528 l 117 526 l 117 1001 l 561 1001 l 561 528 m 661 1111 l 0 1111 l 0 422 l 556 422 l 556 106 l 117 106 l 117 278 l 0 278 l 0 0 l 661 0 l 661 1111 z "}," ":{"ha":374,"x_min":0,"x_max":0,"o":""},"!":{"ha":504,"x_min":267,"x_max":394,"o":"m 267 111 l 267 0 l 394 0 l 394 111 l 267 111 m 272 211 l 394 211 l 394 1106 l 272 1106 l 272 211 z "},"\"":{"ha":503,"x_min":14,"x_max":392,"o":"m 39 836 l 111 836 l 167 964 l 167 1097 l 14 1097 l 14 967 l 94 967 l 39 836 m 236 1097 l 392 1097 l 392 964 l 333 836 l 264 836 l 314 964 l 236 964 l 236 1097 z "},"#":{"ha":911,"x_min":0,"x_max":822,"o":"m 161 0 l 278 0 l 278 283 l 544 283 l 544 0 l 661 0 l 661 283 l 822 283 l 822 411 l 667 411 l 667 639 l 822 639 l 822 767 l 661 767 l 661 1111 l 539 1111 l 539 767 l 283 767 l 283 1106 l 161 1106 l 161 758 l 0 761 l 0 639 l 161 639 l 161 411 l 0 411 l 0 283 l 161 283 l 161 0 m 550 639 l 550 411 l 289 411 l 289 639 l 550 639 z "},"$":{"ha":706,"x_min":56,"x_max":613,"o":"m 150 228 l 150 444 l 56 442 l 56 133 l 267 133 l 267 0 l 394 0 l 394 133 l 613 133 l 611 461 l 143 754 l 143 899 l 517 900 l 517 700 l 613 696 l 611 1000 l 394 1000 l 394 1111 l 267 1111 l 267 994 l 56 994 l 56 689 l 511 411 l 511 228 l 150 228 z "},"%":{"ha":789,"x_min":0,"x_max":694,"o":"m 53 719 l 54 1047 l 257 1047 l 257 719 l 53 719 m 0 1106 l 0 661 l 310 661 l 310 1106 l 0 1106 m 392 0 l 392 444 l 689 444 l 689 0 l 392 0 m 442 394 l 642 394 l 642 54 l 443 54 l 442 394 m 133 0 l 694 1096 l 583 1096 l 17 0 l 133 0 z "},"&":{"ha":842,"x_min":0,"x_max":772,"o":"m 0 633 l 50 583 l 0 539 l 0 0 l 661 0 l 661 433 l 772 433 l 772 539 l 428 539 l 428 428 l 550 428 l 550 111 l 106 111 l 106 528 l 339 528 l 339 628 l 106 628 l 106 1011 l 544 1011 l 544 839 l 661 839 l 661 1117 l 0 1117 l 0 633 z "},"'":{"ha":278,"x_min":14,"x_max":167,"o":"m 39 836 l 111 836 l 167 964 l 167 1097 l 14 1097 l 14 967 l 94 967 l 39 836 z "},"(":{"ha":311,"x_min":0,"x_max":217,"o":"m 0 832 l 0 265 q 206 -49 0 -42 l 206 76 q 106 294 106 90 l 106 826 q 217 1015 106 1028 l 217 1139 q 0 832 0 1139 z "},")":{"ha":328,"x_min":0,"x_max":217,"o":"m 217 832 l 217 265 q 11 -49 217 -42 l 11 76 q 111 294 111 90 l 111 826 q 0 1015 111 1028 l 0 1139 q 217 832 217 1139 z "},"*":{"ha":497,"x_min":3,"x_max":399,"o":"m 156 1136 l 156 1017 l 29 1069 l 3 997 l 156 942 l 3 872 l 44 800 l 156 867 l 156 742 l 240 742 l 240 867 l 344 811 l 393 886 l 240 942 l 399 992 l 365 1064 l 240 1017 l 240 1136 l 156 1136 z "},"+":{"ha":814,"x_min":0,"x_max":744,"o":"m 289 1117 l 289 794 l 0 794 l 0 639 l 289 639 l 289 306 l 444 306 l 444 639 l 744 639 l 744 794 l 444 794 l 444 1117 l 289 1117 z "},",":{"ha":290,"x_min":25,"x_max":178,"o":"m 50 -131 l 122 -131 l 178 -3 l 178 131 l 25 131 l 25 0 l 106 0 l 50 -131 z "},"-":{"ha":501,"x_min":22,"x_max":383,"o":"m 22 483 l 22 625 l 383 628 l 383 483 l 22 483 z "},"‐":{"ha":501,"x_min":22,"x_max":383,"o":"m 22 483 l 22 625 l 383 628 l 383 483 l 22 483 z "},".":{"ha":297,"x_min":25,"x_max":178,"o":"m 178 0 l 178 131 l 25 131 l 25 0 l 178 0 z "},"/":{"ha":774,"x_min":6,"x_max":661,"o":"m 567 1111 l 6 0 l 106 0 l 661 1111 l 567 1111 z "},":":{"ha":276,"x_min":22,"x_max":178,"o":"m 178 0 l 178 131 l 25 131 l 25 0 l 178 0 m 22 564 l 178 564 l 178 422 l 22 422 l 22 564 z "},";":{"ha":276,"x_min":22,"x_max":178,"o":"m 50 -131 l 122 -131 l 178 -3 l 178 131 l 25 131 l 25 0 l 106 0 l 50 -131 m 22 564 l 178 564 l 178 422 l 22 422 l 22 564 z "},"<":{"ha":754,"x_min":0,"x_max":706,"o":"m 0 1017 l 0 883 l 544 550 l 0 222 l 0 94 l 706 550 l 0 1017 z "},"=":{"ha":650,"x_min":22,"x_max":544,"o":"m 22 483 l 22 628 l 544 628 l 544 483 l 22 483 m 539 756 l 539 906 l 22 906 l 22 756 l 539 756 z "},">":{"ha":786,"x_min":0,"x_max":706,"o":"m 706 1017 l 706 883 l 161 550 l 706 222 l 706 94 l 0 550 l 706 1017 z "},"?":{"ha":758,"x_min":0,"x_max":678,"o":"m 267 111 l 267 0 l 394 0 l 394 111 l 267 111 m 272 467 l 272 211 l 394 211 l 394 411 l 678 694 l 678 1111 l 0 1111 l 0 739 l 106 739 l 106 1006 l 556 1006 l 556 750 l 272 467 z "},"@":{"ha":785,"x_min":6,"x_max":689,"o":"m 689 111 l 111 111 l 111 1006 l 556 1006 l 556 789 l 189 789 l 189 272 l 667 272 l 667 1111 l 6 1111 l 6 0 l 689 0 l 689 111 m 550 697 l 550 367 l 278 367 l 278 697 l 550 697 z "},"A":{"ha":771,"x_min":0,"x_max":661,"o":"m 106 1006 l 550 1006 l 550 478 l 106 478 l 106 1006 m 0 0 l 111 0 l 111 367 l 550 367 l 550 0 l 661 0 l 661 1111 l 0 1111 l 0 0 z "},"B":{"ha":768,"x_min":0,"x_max":664,"o":"m 106 111 l 106 500 l 486 500 l 550 436 l 550 111 l 106 111 m 0 0 l 664 0 l 664 458 l 578 544 l 661 606 l 661 1111 l 0 1111 l 0 0 m 106 611 l 106 1006 l 550 1006 l 550 647 l 503 611 l 106 611 z "},"C":{"ha":753,"x_min":0,"x_max":667,"o":"m 550 111 l 106 111 l 106 1006 l 550 1006 l 550 694 l 661 694 l 661 1111 l 0 1111 l 0 0 l 667 0 l 667 439 l 550 438 l 550 111 z "},"D":{"ha":768,"x_min":0,"x_max":661,"o":"m 106 111 l 106 1006 l 550 1006 l 550 222 l 372 111 l 106 111 m 0 0 l 417 0 l 661 161 l 661 1111 l 0 1111 l 0 0 z "},"E":{"ha":699,"x_min":0,"x_max":661,"o":"m 556 611 l 106 611 l 106 1006 l 661 1006 l 661 1111 l 0 1111 l 0 0 l 661 0 l 661 111 l 106 111 l 106 500 l 556 500 l 556 611 z "},"F":{"ha":686,"x_min":0,"x_max":661,"o":"m 556 611 l 106 611 l 106 1006 l 661 1006 l 661 1111 l 0 1111 l 0 0 l 106 0 l 106 500 l 556 500 l 556 611 z "},"G":{"ha":760,"x_min":0,"x_max":667,"o":"m 550 111 l 106 111 l 106 1006 l 550 1006 l 550 694 l 661 694 l 661 1111 l 0 1111 l 0 0 l 667 0 l 667 539 l 328 539 l 328 422 l 550 422 l 550 111 z "},"H":{"ha":774,"x_min":0,"x_max":661,"o":"m 0 0 l 106 0 l 106 500 l 544 500 l 544 0 l 661 0 l 661 1111 l 550 1111 l 550 611 l 106 611 l 108 1111 l 0 1111 l 0 0 z "},"I":{"ha":221,"x_min":0,"x_max":108,"o":"m 0 0 l 106 0 l 108 1111 l 0 1111 l 0 0 z "},"J":{"ha":771,"x_min":0,"x_max":661,"o":"m 0 478 l 111 478 l 111 106 l 550 106 l 550 1111 l 661 1111 l 661 0 l 0 0 l 0 478 z "},"K":{"ha":771,"x_min":0,"x_max":694,"o":"m 689 1111 l 539 1111 l 106 678 l 108 1111 l 0 1111 l 0 0 l 106 0 l 106 533 l 233 661 l 567 0 l 694 0 l 322 744 l 689 1111 z "},"L":{"ha":679,"x_min":0,"x_max":661,"o":"m 106 111 l 106 1111 l 0 1111 l 0 0 l 661 0 l 661 111 l 106 111 z "},"M":{"ha":1111,"x_min":0,"x_max":999,"o":"m 0 0 l 122 0 l 122 850 l 461 0 l 561 0 l 878 850 l 878 0 l 994 0 l 999 1111 l 839 1111 l 511 217 l 156 1111 l 0 1111 l 0 0 z "},"N":{"ha":746,"x_min":0,"x_max":633,"o":"m 633 0 l 633 1111 l 511 1111 l 511 217 l 156 1111 l 0 1111 l 0 0 l 122 0 l 122 850 l 461 0 l 633 0 z "},"O":{"ha":768,"x_min":0,"x_max":661,"o":"m 550 111 l 106 111 l 106 1006 l 550 1006 l 550 111 m 0 1111 l 0 0 l 661 0 l 661 1111 l 0 1111 z "},"P":{"ha":728,"x_min":0,"x_max":661,"o":"m 0 0 l 106 0 l 106 500 l 661 500 l 661 1111 l 0 1111 l 0 0 m 106 611 l 106 1006 l 550 1006 l 550 611 l 106 611 z "},"Q":{"ha":771,"x_min":0,"x_max":711,"o":"m 106 111 l 106 1006 l 550 1006 l 550 111 l 106 111 m 0 1111 l 0 0 l 522 0 l 619 -97 l 711 -6 l 661 44 l 661 1111 l 0 1111 z "},"R":{"ha":771,"x_min":0,"x_max":665,"o":"m 106 0 l 106 500 l 350 500 l 550 300 l 550 0 l 664 0 l 665 342 l 506 500 l 661 500 l 661 1111 l 0 1111 l 0 0 l 106 0 m 550 611 l 106 611 l 106 1006 l 550 1006 l 550 611 z "},"S":{"ha":757,"x_min":0,"x_max":661,"o":"m 550 111 l 106 111 l 106 406 l 0 406 l 0 0 l 661 0 l 661 494 l 106 728 l 106 1006 l 550 1006 l 550 739 l 661 739 l 661 1111 l 0 1111 l 0 656 l 550 406 l 550 111 z "},"T":{"ha":726,"x_min":0,"x_max":661,"o":"m 394 0 l 394 1006 l 661 1006 l 661 1111 l 0 1111 l 0 1006 l 283 1006 l 283 0 l 394 0 z "},"U":{"ha":771,"x_min":0,"x_max":661,"o":"m 0 0 l 0 1111 l 111 1111 l 111 106 l 550 106 l 550 1111 l 661 1111 l 661 0 l 0 0 z "},"V":{"ha":803,"x_min":0,"x_max":722,"o":"m 406 0 l 278 0 l 0 1111 l 122 1111 l 344 228 l 583 1117 l 722 1117 l 406 0 z "},"W":{"ha":1379,"x_min":0,"x_max":1300,"o":"m 0 1111 l 122 1111 l 350 250 l 583 1117 l 678 1117 l 911 256 l 1167 1111 l 1300 1111 l 967 0 l 867 0 l 622 794 l 411 0 l 278 0 l 0 1111 z "},"X":{"ha":789,"x_min":11,"x_max":706,"o":"m 678 0 l 556 -6 l 361 389 l 167 0 l 33 0 l 300 533 l 11 1111 l 128 1111 l 356 656 l 583 1117 l 706 1117 l 411 533 l 678 0 z "},"Y":{"ha":776,"x_min":11,"x_max":706,"o":"m 411 0 l 300 0 l 300 533 l 11 1111 l 128 1111 l 356 656 l 583 1117 l 706 1117 l 411 533 l 411 0 z "},"Z":{"ha":736,"x_min":0,"x_max":661,"o":"m 0 0 l 661 0 l 661 117 l 139 117 l 661 994 l 661 1111 l 0 1111 l 0 994 l 533 994 l 0 122 l 0 0 z "},"\\":{"ha":774,"x_min":6,"x_max":661,"o":"m 100 1111 l 661 0 l 561 0 l 6 1111 l 100 1111 z "},"_":{"ha":1511,"x_min":0,"x_max":1389,"o":"m 0 0 l 1389 0 l 1389 -64 l 0 -64 l 0 0 z "},"a":{"ha":771,"x_min":0,"x_max":661,"o":"m 106 1006 l 550 1006 l 550 478 l 106 478 l 106 1006 m 0 0 l 111 0 l 111 367 l 550 367 l 550 0 l 661 0 l 661 1111 l 0 1111 l 0 0 z "},"b":{"ha":768,"x_min":0,"x_max":664,"o":"m 106 111 l 106 500 l 486 500 l 550 436 l 550 111 l 106 111 m 0 0 l 664 0 l 664 458 l 578 544 l 661 606 l 661 1111 l 0 1111 l 0 0 m 106 611 l 106 1006 l 550 1006 l 550 647 l 503 611 l 106 611 z "},"c":{"ha":753,"x_min":0,"x_max":667,"o":"m 550 111 l 106 111 l 106 1006 l 550 1006 l 550 694 l 661 694 l 661 1111 l 0 1111 l 0 0 l 667 0 l 667 439 l 550 438 l 550 111 z "},"d":{"ha":768,"x_min":0,"x_max":661,"o":"m 106 111 l 106 1006 l 550 1006 l 550 222 l 372 111 l 106 111 m 0 0 l 417 0 l 661 161 l 661 1111 l 0 1111 l 0 0 z "},"e":{"ha":699,"x_min":0,"x_max":661,"o":"m 556 611 l 106 611 l 106 1006 l 661 1006 l 661 1111 l 0 1111 l 0 0 l 661 0 l 661 111 l 106 111 l 106 500 l 556 500 l 556 611 z "},"f":{"ha":686,"x_min":0,"x_max":661,"o":"m 556 611 l 106 611 l 106 1006 l 661 1006 l 661 1111 l 0 1111 l 0 0 l 106 0 l 106 500 l 556 500 l 556 611 z "},"g":{"ha":760,"x_min":0,"x_max":667,"o":"m 550 111 l 106 111 l 106 1006 l 550 1006 l 550 694 l 661 694 l 661 1111 l 0 1111 l 0 0 l 667 0 l 667 539 l 328 539 l 328 422 l 550 422 l 550 111 z "},"h":{"ha":774,"x_min":0,"x_max":661,"o":"m 0 0 l 106 0 l 106 500 l 544 500 l 544 0 l 661 0 l 661 1111 l 550 1111 l 550 611 l 106 611 l 108 1111 l 0 1111 l 0 0 z "},"i":{"ha":221,"x_min":0,"x_max":108,"o":"m 0 0 l 106 0 l 108 1111 l 0 1111 l 0 0 z "},"j":{"ha":771,"x_min":0,"x_max":661,"o":"m 0 478 l 111 478 l 111 106 l 550 106 l 550 1111 l 661 1111 l 661 0 l 0 0 l 0 478 z "},"k":{"ha":771,"x_min":0,"x_max":694,"o":"m 689 1111 l 539 1111 l 106 678 l 108 1111 l 0 1111 l 0 0 l 106 0 l 106 533 l 233 661 l 567 0 l 694 0 l 322 744 l 689 1111 z "},"l":{"ha":679,"x_min":0,"x_max":661,"o":"m 106 111 l 106 1111 l 0 1111 l 0 0 l 661 0 l 661 111 l 106 111 z "},"m":{"ha":1111,"x_min":0,"x_max":999,"o":"m 0 0 l 122 0 l 122 850 l 461 0 l 561 0 l 878 850 l 878 0 l 994 0 l 999 1111 l 839 1111 l 511 217 l 156 1111 l 0 1111 l 0 0 z "},"n":{"ha":746,"x_min":0,"x_max":633,"o":"m 633 0 l 633 1111 l 511 1111 l 511 217 l 156 1111 l 0 1111 l 0 0 l 122 0 l 122 850 l 461 0 l 633 0 z "},"o":{"ha":768,"x_min":0,"x_max":661,"o":"m 550 111 l 106 111 l 106 1006 l 550 1006 l 550 111 m 0 1111 l 0 0 l 661 0 l 661 1111 l 0 1111 z "},"p":{"ha":728,"x_min":0,"x_max":661,"o":"m 0 0 l 106 0 l 106 500 l 661 500 l 661 1111 l 0 1111 l 0 0 m 106 611 l 106 1006 l 550 1006 l 550 611 l 106 611 z "},"q":{"ha":771,"x_min":0,"x_max":711,"o":"m 106 111 l 106 1006 l 550 1006 l 550 111 l 106 111 m 0 1111 l 0 0 l 522 0 l 619 -97 l 711 -6 l 661 44 l 661 1111 l 0 1111 z "},"r":{"ha":771,"x_min":0,"x_max":665,"o":"m 106 0 l 106 500 l 350 500 l 550 300 l 550 0 l 664 0 l 665 342 l 506 500 l 661 500 l 661 1111 l 0 1111 l 0 0 l 106 0 m 550 611 l 106 611 l 106 1006 l 550 1006 l 550 611 z "},"s":{"ha":757,"x_min":0,"x_max":661,"o":"m 550 111 l 106 111 l 106 406 l 0 406 l 0 0 l 661 0 l 661 494 l 106 728 l 106 1006 l 550 1006 l 550 739 l 661 739 l 661 1111 l 0 1111 l 0 656 l 550 406 l 550 111 z "},"t":{"ha":726,"x_min":0,"x_max":661,"o":"m 394 0 l 394 1006 l 661 1006 l 661 1111 l 0 1111 l 0 1006 l 283 1006 l 283 0 l 394 0 z "},"u":{"ha":771,"x_min":0,"x_max":661,"o":"m 0 0 l 0 1111 l 111 1111 l 111 106 l 550 106 l 550 1111 l 661 1111 l 661 0 l 0 0 z "},"v":{"ha":803,"x_min":0,"x_max":722,"o":"m 406 0 l 278 0 l 0 1111 l 122 1111 l 344 228 l 583 1117 l 722 1117 l 406 0 z "},"w":{"ha":1379,"x_min":0,"x_max":1300,"o":"m 0 1111 l 122 1111 l 350 250 l 583 1117 l 678 1117 l 911 256 l 1167 1111 l 1300 1111 l 967 0 l 867 0 l 622 794 l 411 0 l 278 0 l 0 1111 z "},"x":{"ha":789,"x_min":11,"x_max":706,"o":"m 678 0 l 556 -6 l 361 389 l 167 0 l 33 0 l 300 533 l 11 1111 l 128 1111 l 356 656 l 583 1117 l 706 1117 l 411 533 l 678 0 z "},"y":{"ha":776,"x_min":11,"x_max":706,"o":"m 411 0 l 300 0 l 300 533 l 11 1111 l 128 1111 l 356 656 l 583 1117 l 706 1117 l 411 533 l 411 0 z "},"z":{"ha":736,"x_min":0,"x_max":661,"o":"m 0 0 l 661 0 l 661 117 l 139 117 l 661 994 l 661 1111 l 0 1111 l 0 994 l 533 994 l 0 122 l 0 0 z "},"‘":{"ha":281,"x_min":21,"x_max":174,"o":"m 149 1101 l 76 1101 l 21 974 l 21 840 l 174 840 l 174 971 l 93 971 l 149 1101 z "},"’":{"ha":278,"x_min":14,"x_max":167,"o":"m 39 836 l 111 836 l 167 964 l 167 1097 l 14 1097 l 14 967 l 94 967 l 39 836 z "},"“":{"ha":494,"x_min":10,"x_max":388,"o":"m 363 1101 l 290 1101 l 235 974 l 235 840 l 388 840 l 388 971 l 307 971 l 363 1101 m 165 840 l 10 840 l 10 974 l 68 1101 l 138 1101 l 88 974 l 165 974 l 165 840 z "},"”":{"ha":503,"x_min":14,"x_max":392,"o":"m 39 836 l 111 836 l 167 964 l 167 1097 l 14 1097 l 14 967 l 94 967 l 39 836 m 236 1097 l 392 1097 l 392 964 l 333 836 l 264 836 l 314 964 l 236 964 l 236 1097 z "}}}
